<?xml version="1.0" encoding="iso-8859-1"?>
<!-- Generator: Adobe Illustrator 19.0.0, SVG Export Plug-In . SVG Version: 6.00 Build 0)  -->
<svg version="1.1" id="Camada_1" xmlns="http://www.w3.org/2000/svg" xmlns:xlink="http://www.w3.org/1999/xlink" x="0px" y="0px"
	 viewBox="0 0 612 792" style="enable-background:new 0 0 612 792;" xml:space="preserve">
<g id="XMLID_1_">
	<path id="XMLID_85_" style="fill:#0F0737;" d="M53.402,492.105c1.532-1.855,3.047-3.723,4.598-5.562
		c15.759-18.695,31.59-37.331,47.189-56.159c1.615-1.949,2.663-5.049,2.618-7.591c-0.601-34.465-1.332-68.93-2.256-103.388
		c-0.798-29.768-1.881-59.527-2.852-89.29c-0.026-0.799-0.215-1.593-0.396-2.873c-2.1,0.9-3.9,1.672-5.7,2.444
		c-0.217-0.337-0.434-0.673-0.652-1.01c45.791-37.117,91.582-74.234,137.372-111.351c0.54,0.167,1.08,0.334,1.621,0.501
		c0.638,51.962,1.276,103.924,1.914,155.887c0.334,0.175,0.669,0.35,1.003,0.525c4.393-5.251,8.907-10.407,13.154-15.775
		c7.711-9.747,15.004-19.835,22.954-29.379c8.186-9.828,17.21-18.958,25.407-28.778c21.098-25.273,41.959-50.745,62.849-76.191
		c1.446-1.761,2.198-4.078,3.558-5.926c0.891-1.21,2.298-2.041,3.474-3.042c0.667,1.348,1.851,2.67,1.921,4.049
		c0.772,15.12,1.334,30.25,2.023,45.375c1.036,22.759,1.722,45.546,3.438,68.255c0.526,6.963,1.087,13.803,0.655,20.771
		c-0.147,2.375,0.941,4.8,1.132,7.228c0.292,3.721-0.815,6.482-3.76,9.511c-6.686,6.878-12.391,14.715-18.446,22.202
		c-12.944,16.003-25.907,31.992-38.771,48.059c-19.742,24.657-39.403,49.379-59.107,74.067
		c-27.38,34.306-54.757,68.615-82.158,102.904c-12.549,15.703-25.136,31.375-37.751,47.025c-1.614,2.003-3.496,3.789-5.254,5.676
		c-0.359-0.261-0.717-0.522-1.076-0.784c0.757-1.299,1.364-2.718,2.292-3.881c29.55-37.055,59.216-74.017,88.676-111.144
		c16.622-20.948,32.71-42.322,49.402-63.214c22.62-28.313,45.627-56.317,68.389-84.517c10.647-13.191,21.535-26.226,31.383-39.997
		c2.79-3.902,2.299-10.15,3.313-15.322c-0.645-0.217-1.29-0.434-1.935-0.651c-41.182,52.032-82.078,104.294-123.628,156.031
		c-41.468,51.636-82.242,103.846-124.434,154.896c-0.592-0.469-1.184-0.939-1.775-1.408c4.999-6.425,9.94-12.897,15.008-19.267
		c16.349-20.547,32.74-41.061,49.125-61.58c22.299-27.927,44.655-55.808,66.899-83.779c23.279-29.273,46.465-58.621,69.672-87.951
		c14.443-18.254,28.917-36.484,43.241-54.831c6.014-7.703,6.391-16.714,5.899-26.12c-0.972-18.582-1.233-37.2-2.01-55.795
		c-0.631-15.105-1.586-30.196-2.477-46.757c-2.75,1.856-5.277,2.863-6.81,4.701c-22.453,26.926-44.772,53.963-67.124,80.973
		c-22.789,27.54-45.489,55.155-68.396,82.597c-18.639,22.328-37.593,44.392-56.273,66.687c-7.993,9.54-15.418,19.561-23.496,29.026
		c-17.899,20.972-36.046,41.732-54.094,62.576c-11.324,13.079-22.634,26.17-34.004,39.208c-1.195,1.37-2.757,2.419-4.148,3.617
		C54.333,493.09,53.867,492.598,53.402,492.105z M232.296,121.487c-3.202,2.631-5.458,4.469-7.698,6.327
		c-10.872,9.021-21.631,18.183-32.631,27.045c-27.456,22.119-54.959,44.181-82.621,66.041c-3.533,2.792-4.383,5.705-4.108,9.8
		c0.748,11.122,1.414,22.255,1.809,33.395c0.751,21.127,1.299,42.261,1.915,63.393c0.806,27.621,1.575,55.244,2.419,82.864
		c0.101,3.288,0.574,6.565,1.014,11.375c2.152-2.526,3.227-3.79,4.305-5.052c20.728-24.266,41.476-48.514,62.178-72.802
		c16.494-19.352,32.869-38.806,49.438-58.093c4.037-4.699,5.94-9.231,5.808-15.971c-0.915-46.926-1.061-93.866-1.47-140.802
		C232.636,126.923,232.461,124.84,232.296,121.487z"/>
	<path id="XMLID_82_" style="fill:#A50C30;" d="M378.576,342.261c44.406,56.516,88.983,113.25,133.559,169.984
		c-0.531,0.465-1.061,0.931-1.592,1.396c-1.553-1.723-3.188-3.381-4.647-5.18c-11.848-14.611-23.766-29.168-35.454-43.906
		c-8.663-10.924-16.934-22.159-25.52-33.145c-20.469-26.191-41.025-52.315-61.536-78.474c-3.022-3.853-5.1-3.84-8.668,0.451
		c-14.138,17.003-28.231,34.043-42.316,51.09c-6.428,7.78-12.798,15.609-20,24.398c2.979,0,4.715,0.046,6.448-0.007
		c15.809-0.483,31.62-0.893,47.422-1.54c4.143-0.169,5.902,0.77,5.79,5.431c-0.263,10.986-0.246,22.004,0.335,32.973
		c0.273,5.166-2.483,5.913-6.178,6.139c-5.313,0.324-10.641,0.45-15.965,0.555c-10.948,0.215-21.896,0.416-32.845,0.512
		c-6.498,0.057-6.57-0.124-6.564-6.712c0.011-11.279,0.003-22.558,0.003-35.348c-48.276,57.655-95.57,114.136-142.863,170.617
		c-0.601-0.489-1.202-0.977-1.804-1.466c2.862-3.632,5.637-7.338,8.601-10.885c27.619-33.056,55.32-66.043,82.899-99.133
		c27.572-33.081,55.025-66.261,82.541-99.389c10.302-12.403,20.704-24.723,30.908-37.206
		C373.687,350.289,375.655,346.681,378.576,342.261z M340.91,469.559c0-0.054,0-0.109,0-0.163c8.15,0,16.3-0.063,24.448,0.032
		c3.111,0.036,4.445-1,4.383-4.348c-0.19-10.309-0.178-20.625-0.068-30.936c0.031-2.947-0.804-4.213-3.949-4.09
		c-16.278,0.635-32.56,1.171-48.843,1.638c-2.82,0.081-3.733,1.264-3.705,3.971c0.102,9.813,0.16,19.629,0.007,29.441
		c-0.056,3.586,1.451,4.574,4.779,4.504C325.608,469.451,333.26,469.559,340.91,469.559z"/>
	<path id="XMLID_81_" style="fill:#A50C30;" d="M378.171,318.227c47.595,62.441,95.871,122.974,143.086,184.317
		c-0.584,0.469-1.167,0.939-1.751,1.408c-3.056-3.603-6.231-7.112-9.148-10.824c-18.68-23.779-37.176-47.702-56.019-71.35
		c-5.799-7.278-12.81-13.584-18.695-20.802c-6.714-8.235-12.81-16.975-19.139-25.523c-11.972-16.171-23.918-32.361-35.879-48.54
		c-0.394-0.533-0.839-1.03-1.803-2.207c-37.093,44.775-73.641,89.461-110.821,133.614c-37.126,44.088-73.513,88.82-111.444,132.223
		c-0.563-0.452-1.127-0.904-1.69-1.357c2.515-3.29,4.909-6.682,7.565-9.854c22.102-26.388,44.274-52.718,66.382-79.1
		c31.721-37.854,63.44-75.71,95.094-113.62c16.732-20.038,33.369-40.156,49.919-60.344
		C375.671,324.021,376.664,321.076,378.171,318.227z"/>
	<path id="XMLID_78_" style="fill:#2D7CB7;" d="M439.891,470.32c-20.808,0.621-40.583,1.212-60.7,1.813c0-15.362,0-30.074,0-45.094
		c0.535-0.156,1.286-0.554,2.045-0.57c17.118-0.37,34.24-0.626,51.355-1.096c3.454-0.095,4.517,1.014,4.706,4.473
		c0.664,12.102,1.712,24.183,2.577,36.275C439.99,467.718,439.891,469.331,439.891,470.32z M437.42,467.209
		c-0.833-12.067-1.725-23.798-2.4-35.541c-0.181-3.14-1.642-3.88-4.439-3.803c-15.124,0.421-30.25,0.817-45.378,1.045
		c-3.139,0.047-4.031,1.299-3.929,4.204c0.374,10.634,0.668,21.272,0.88,31.911c0.061,3.082,1.195,4.603,4.451,4.496
		c15.457-0.512,30.917-0.932,46.374-1.431C434.119,468.053,435.248,467.652,437.42,467.209z"/>
	<path id="XMLID_75_" style="fill:#2D7CB7;" d="M443.047,525.119c-20.082,0-39.81,0-59.845,0c-0.148-1.577-0.335-2.841-0.376-4.11
		c-0.371-11.63-0.622-23.265-1.127-34.889c-0.148-3.402,0.887-4.78,4.397-4.854c17.087-0.362,34.169-0.96,51.257-1.236
		c1.234-0.02,3.512,1.779,3.595,2.864c1.053,13.738,1.794,27.5,2.589,41.258C443.553,524.43,443.253,524.729,443.047,525.119z
		 M412.895,522.573c0-0.042,0-0.084,0-0.127c7.825,0,15.654-0.125,23.475,0.057c3.506,0.081,4.751-1.161,4.477-4.658
		c-0.78-9.938-1.572-19.884-1.926-29.842c-0.152-4.255-1.868-5.265-5.768-5.201c-14.641,0.238-29.287,0.342-43.929,0.208
		c-4.113-0.038-5.139,1.521-4.972,5.322c0.448,10.134,0.707,20.28,0.815,30.424c0.034,3.27,1.614,3.872,4.353,3.845
		C397.245,522.523,405.07,522.573,412.895,522.573z"/>
	<path id="XMLID_72_" style="fill:#2D7CB7;" d="M312.715,524.978c0-14,0-28.408,0-43.21c20.098-0.541,39.743-1.071,59.64-1.607
		c0,9.328-0.262,18.062,0.097,26.769c0.221,5.35,1.553,10.648,1.985,16.001c0.075,0.934-1.85,2.92-2.836,2.909
		c-8.41-0.09-16.814-0.694-25.225-0.822C335.411,524.852,324.441,524.978,312.715,524.978z M315.175,503.51
		c-0.051,0-0.102,0-0.153,0c0,5.164,0.17,10.336-0.059,15.49c-0.157,3.544,1.227,4.671,4.651,4.571
		c15.803-0.461,31.611-0.815,47.419-1.08c2.824-0.047,3.886-1.094,3.722-3.86c-0.629-10.631-1.223-21.265-1.729-31.903
		c-0.143-3.001-1.529-3.968-4.43-3.888c-15.149,0.418-30.3,0.777-45.453,0.989c-3.105,0.044-4.075,1.277-4.004,4.188
		C315.266,493.179,315.175,498.346,315.175,503.51z"/>
</g>
<path id="XMLID_20_" style="fill:#0F0737;" d="M234.944,117.827L102.83,226.807c-0.09,0.487-0.257,0.947-0.483,1.377l9.154,197.183
	l126.643-146.502L234.944,117.827z"/>
<polyline id="XMLID_4_" style="fill:#0F0737;" points="54.798,493.582 125.562,561.686 330.652,301.954 374.44,246.5 374.44,221.5 
	374.44,209.5 374.44,193.603 371.909,178.503 369.987,139.391 369.143,124.198 368.333,121.487 "/>
<polygon id="XMLID_5_" style="fill:#0F0737;" points="103.422,222.621 126,206.333 122.667,225.333 "/>
<path id="XMLID_2_" style="fill:#A50C30;" d="M139,209"/>
<polyline id="XMLID_6_" style="fill:#A50C30;" points="378.544,325.311 384.236,351 378.472,345.667 310.848,430.877 
	294.979,449.83 167.985,601.494 156.559,590.543 "/>
<line id="XMLID_8_" style="fill:#A50C30;" x1="373.828" y1="326.268" x2="367" y2="358"/>
<polyline id="XMLID_7_" style="fill:#A50C30;" points="358.617,344.772 378.472,322.5 391.968,342.261 "/>
<polygon id="XMLID_9_" style="fill:#A50C30;" points="384.236,351 381.266,337.598 395.069,342.587 520.434,503.206 
	512.135,512.246 "/>
<polyline id="XMLID_13_" style="fill:#0F0737;" points="434.667,427.86 381.266,427.86 381.685,469.526 438.42,468.526 "/>
<polyline id="XMLID_10_" style="fill:#0F0737;" points="312.409,428.911 372.083,427.167 373,471.878 310.333,473.417 
	310.848,430.877 "/>
<polygon id="XMLID_11_" style="fill:#0F0737;" points="313.175,481.756 371.738,480.178 372.25,523.577 314,523.577 "/>
<polyline id="XMLID_14_" style="fill:#0F0737;" points="383.337,481.822 439.931,481.822 443.375,524.594 383.337,524.594 
	383.337,482.8 "/>
<path id="XMLID_12_" style="fill:#0F0737;" d="M337.25,296.375"/>
<path id="XMLID_15_" style="fill:#0F0737;" d="M369.5,275c1.61-0.789,6.185-3.299,8.125-8.5c2.424-6.5-0.17-14.79-3.375-15.375
	c-1.092-0.199-2.718,0.411-5.125,3.75l-46.75,59l-66.96,83.361l-18.266,23.132l-25.496,32.288l-12.066,15.281l-36.711,46.492
	l-38.957,45.677l8.184,9.379l2.229,0.784"/>
<g id="XMLID_3_">
	<g id="XMLID_28_">
		<path id="XMLID_32_" style="fill:#0F0737;" d="M126.694,408.69c3.876-3.632,7.751-7.263,11.627-10.895
			c-1.423-0.589-2.845-1.178-4.268-1.768c0.497,5.331-8.645,10.729-11.961,14.309c-3.972,4.289-7.431,9.007-10.472,13.994
			c1.523,0.199,3.046,0.398,4.569,0.597c-1.086-7.495-0.843-15.043-0.56-22.586c0.121-3.218-4.879-3.213-5,0
			c-0.301,8.023-0.415,15.95,0.739,23.915c0.326,2.248,3.554,2.263,4.569,0.597c4.003-6.565,8.787-12.549,14.473-17.74
			c3.976-3.629,9.207-7.032,8.643-13.087c-0.199-2.13-2.599-3.331-4.268-1.768c-3.876,3.632-7.751,7.263-11.627,10.895
			C120.805,407.359,124.346,410.889,126.694,408.69L126.694,408.69z"/>
	</g>
</g>
<g id="XMLID_16_">
	<g id="XMLID_35_">
		<path id="XMLID_39_" style="fill:#0F0737;" d="M305,274.833c3.217,0,3.223-5,0-5C301.783,269.833,301.777,274.833,305,274.833
			L305,274.833z"/>
	</g>
</g>
<g id="XMLID_17_">
	<g id="XMLID_42_">
		<path id="XMLID_46_" style="fill:#0F0737;" d="M341.791,277.674c0.41,4.285,0.055,8.191-1.184,12.331c1.607,0,3.214,0,4.821,0
			c-1.601-4.695,4.328-8.833,7.184-11.875c2.851-3.038,5.617-6.158,8.295-9.35c5.113-6.094,9.888-12.457,14.375-19.024
			c-1.553-0.421-3.106-0.841-4.659-1.262c0.611,5.876-3.619,10.045-7.436,13.95c-3.696,3.782-7.378,7.575-11.012,11.417
			c-7.267,7.682-14.386,15.506-21.35,23.464c-13.661,15.611-26.698,31.754-39.165,48.333c-1.549,2.06,1.412,4.65,3.42,3.42
			c9.757-5.974,20.253-13.132,22.662-25.095c0.521-2.588-3.33-4.669-4.569-1.926c-2.684,5.94-6.624,10.689-12.098,14.255
			c1.224,0.941,2.448,1.882,3.672,2.823c2.285-7.478,7.242-13.2,14.224-16.692c-1.14-1.14-2.28-2.28-3.42-3.42
			c-5.002,9.62-15.559,14.215-23.677,20.774c-8.732,7.055-15.967,15.747-21.614,25.428c-1.048,1.797,0.708,4.395,2.823,3.672
			c10.478-3.579,18.373-11.155,22.52-21.397c-1.607-0.443-3.214-0.886-4.821-1.329c-1.238,4.066-5.47,7.326-8.297,10.396
			c-3.147,3.417-6.293,6.834-9.44,10.252c-6.293,6.834-12.587,13.669-18.88,20.503c-2.175,2.362,1.332,5.896,3.536,3.536
			c7.346-7.869,14.691-15.737,22.037-23.606c-1.393-0.368-2.786-0.735-4.178-1.103c0.638,2.84,0.007,5.008-1.69,7.307
			c1.523,0.199,3.046,0.398,4.569,0.597c-0.697-3.678,1.312-6.512,4.537-7.91c-1.01-1.309-2.02-2.618-3.03-3.926
			c-19.612,23.811-38.647,48.307-59.61,70.957c-2.181,2.356,1.307,5.875,3.536,3.536c7.019-7.369,14.038-14.739,21.057-22.108
			c-1.309-1.01-2.618-2.02-3.926-3.03c-6.682,9.6-14.298,18.4-22.79,26.44c1.309,1.01,2.618,2.02,3.926,3.03
			c6.021-12.345,14.413-23.046,24.961-31.844c-1.423-0.589-2.845-1.179-4.268-1.768c-0.213,1.051-0.426,2.102-0.64,3.153
			c1.523,0.199,3.046,0.398,4.569,0.597c0.179-0.137,0.357-0.274,0.536-0.411c-1.01-1.309-2.02-2.618-3.03-3.926
			c-15.542,14.006-29.435,29.635-41.595,46.656c-1.711,2.395,1.926,4.876,3.926,3.03c5.176-4.777,10.352-9.554,15.528-14.331
			c-1.309-1.01-2.618-2.02-3.926-3.03c-3.294,5.7-8.211,10.551-12.478,15.534c-4.28,4.999-8.561,9.998-12.841,14.996
			c-8.561,9.998-17.122,19.995-25.683,29.993c-1.723,2.012,0.534,5.641,3.03,3.926c6.789-4.663,12.712-10.272,17.577-16.931
			c4.696-6.427,7.321-17.296,14.718-21.039c-1.254-0.72-2.508-1.439-3.762-2.159c0.277,4.829-5.395,7.588-8.742,10.139
			c-3.745,2.854-7.288,5.958-10.581,9.324c-6.406,6.547-11.808,13.983-16.2,22.014c-0.851,1.555,0.188,3.904,2.159,3.762
			c3.747-0.271,6.863-1.311,9.859-3.624c-1.01-1.309-2.02-2.618-3.03-3.926c-12.434,9.706-23.949,20.45-34.492,32.182
			c-1.943,2.162,0.471,5.148,3.03,3.926c12.031-5.743,19.745-17.572,20.539-30.82c0.145-2.424-3.58-3.479-4.659-1.262
			c-2.99,6.147-7.209,11.56-12.786,15.577c-4.369,3.146-10.388,4.852-13.445,9.548c-4.128,6.34,2.909,16.605,9.708,10.927
			c-1.423-0.589-2.845-1.178-4.268-1.768c0.178,2.425,0.355,4.851,0.533,7.276c1.553-0.421,3.106-0.841,4.659-1.262
			c-1.503-2.425-1.36-4.917,0.662-7.031c-1.179,0-2.357,0-3.536,0c-0.004,0.366-0.008,0.731-0.012,1.097
			c-1.956,2.467,1.399,6.009,3.536,3.536c2.132-2.467,4.502-4.194,7.488-5.498c2.334-1.019,1.076-4.714-1.262-4.659
			c-12.029,0.285-20.937,11.441-18.975,23.199c0.3,1.8,3.027,2.471,4.178,1.103c3.632-4.314,4.206-10.039,0.818-14.718
			c-0.737-1.017-2.234-1.74-3.42-0.897c-3.796,2.698-8.004,5.851-8.677,10.804c-0.512,3.77,1.048,7.46,4.52,9.16
			c1.565,0.766,3.91-0.126,3.762-2.159c-1.773-24.359-0.128-48.736,4.989-72.621c0.672-3.138-4.147-4.479-4.821-1.329
			c-5.208,24.31-6.973,49.152-5.167,73.95c1.254-0.72,2.508-1.439,3.762-2.159c-6.147-3.01,1.326-9.317,4.157-11.329
			c-1.14-0.299-2.28-0.598-3.42-0.897c1.971,2.721,2.234,5.963-0.036,8.659c1.393,0.368,2.786,0.735,4.178,1.103
			c-1.427-8.551,5.605-16.667,14.153-16.87c-0.421-1.553-0.841-3.106-1.262-4.659c-3.36,1.467-6.105,3.509-8.499,6.28
			c1.179,1.179,2.357,2.357,3.536,3.536c2.163-2.728,2.159-5.431,0.012-8.168c-0.823-1.049-2.688-0.885-3.536,0
			c-3.523,3.681-4.152,8.721-1.444,13.09c1.228,1.981,4.849,1.33,4.659-1.262c-0.178-2.425-0.355-4.851-0.533-7.276
			c-0.165-2.249-2.573-3.183-4.268-1.768c-1.141,0.062-1.925-0.436-2.352-1.494c-0.494-1.846-0.017-3.326,1.433-4.438
			c1.197-1.174,2.797-2.008,4.246-2.825c2.858-1.611,5.624-3.146,8.215-5.178c5.493-4.308,9.785-9.791,12.833-16.057
			c-1.553-0.421-3.106-0.841-4.659-1.262c-0.693,11.568-7.656,21.536-18.063,26.503c1.01,1.309,2.02,2.618,3.03,3.926
			c10.543-11.733,22.058-22.477,34.492-32.182c2.214-1.728-0.779-5.663-3.03-3.926c-2.258,1.743-4.429,2.731-7.336,2.941
			c0.72,1.254,1.439,2.508,2.159,3.762c5.244-9.589,11.945-18.205,20.113-25.484c5.539-4.936,16.596-9.724,16.092-18.517
			c-0.112-1.949-2.023-3.039-3.762-2.159c-6.98,3.532-9.244,11.158-12.983,17.479c-4.848,8.197-11.475,15.108-19.312,20.491
			c1.01,1.309,2.02,2.618,3.03,3.926c8.989-10.498,17.978-20.995,26.967-31.493c4.28-4.999,8.561-9.998,12.841-14.996
			c4.137-4.831,8.778-9.513,11.975-15.046c1.445-2.501-1.856-4.94-3.926-3.03c-5.176,4.777-10.352,9.554-15.528,14.331
			c1.309,1.01,2.618,2.02,3.926,3.03c11.911-16.673,25.593-31.929,40.813-45.644c2.258-2.035-0.613-5.022-3.03-3.926
			c-2.575,1.167-3.327,3.415-2.834,6.057c0.403,2.16,3.562,2.368,4.569,0.597c1.1-1.933,1.5-3.465,1.322-5.676
			c-0.18-2.243-2.564-3.189-4.268-1.768c-10.841,9.042-19.554,20.168-25.743,32.856c-1.22,2.5,1.788,5.054,3.926,3.03
			c8.801-8.332,16.649-17.507,23.572-27.452c1.632-2.345-1.99-5.062-3.926-3.03c-7.019,7.37-14.038,14.739-21.057,22.108
			c1.179,1.178,2.357,2.357,3.536,3.536c20.963-22.65,39.998-47.146,59.61-70.957c1.857-2.255-0.405-5.065-3.03-3.926
			c-5.474,2.374-7.918,7.842-6.835,13.557c0.443,2.339,3.425,2.148,4.569,0.597c2.494-3.38,3.108-7.094,2.194-11.16
			c-0.408-1.815-2.927-2.443-4.178-1.103c-7.346,7.869-14.691,15.738-22.037,23.606c1.179,1.178,2.357,2.357,3.536,3.536
			c7.192-7.811,14.385-15.622,21.577-23.432c3.596-3.905,7.201-7.803,10.789-11.716c2.339-2.551,4.511-4.841,5.537-8.208
			c0.961-3.154-3.647-4.231-4.821-1.329c-3.449,8.521-10.35,14.941-19.027,17.905c0.941,1.224,1.882,2.448,2.823,3.672
			c6.174-10.584,14.322-19.812,24.254-27.018c7.779-5.644,16.44-10.344,21.037-19.184c1.181-2.271-1.173-4.545-3.42-3.42
			c-8.101,4.052-13.88,11.034-16.522,19.68c-0.621,2.034,1.844,4.014,3.672,2.823c6.164-4.015,10.857-9.333,13.891-16.049
			c-1.523-0.642-3.046-1.284-4.569-1.926c-2.146,10.657-11.7,16.803-20.364,22.107c1.14,1.14,2.28,2.28,3.42,3.42
			c13.706-18.228,28.15-35.891,43.324-52.916c7.243-8.127,14.649-16.108,22.211-23.94c6.024-6.239,15.117-13.144,14.11-22.832
			c-0.257-2.467-3.197-3.401-4.659-1.262c-5.93,8.678-12.396,16.957-19.466,24.738c-4.635,5.101-13.594,11.445-10.892,19.364
			c0.786,2.304,4.09,2.443,4.821,0c1.346-4.498,1.81-8.983,1.363-13.66C346.487,274.499,341.484,274.468,341.791,277.674
			L341.791,277.674z"/>
	</g>
</g>
<g id="XMLID_18_">
	<g id="XMLID_49_">
		<path id="XMLID_53_" style="fill:#0F0737;" d="M111.176,423.637c-0.918,1.469-1.836,2.938-2.754,4.408
			c1.553,0.421,3.106,0.841,4.659,1.262c0.44-4.316,0.88-8.631,1.319-12.947c0.326-3.198-4.676-3.175-5,0
			c-0.44,4.316-0.88,8.631-1.319,12.947c-0.266,2.61,3.447,3.201,4.659,1.262c0.918-1.469,1.836-2.939,2.754-4.408
			C117.203,423.424,112.879,420.911,111.176,423.637L111.176,423.637z"/>
	</g>
</g>
<g id="XMLID_19_">
	<g id="XMLID_56_">
		<path id="XMLID_60_" style="fill:#0F0737;" d="M338.565,282.385c3.358,2.577,6.898,4.672,10.772,6.377
			c1.766,0.777,3.636-0.133,3.762-2.159c0.469-7.531,0.582-15.059,0.339-22.601c-0.103-3.209-5.104-3.224-5,0
			c0.243,7.542,0.13,15.07-0.339,22.601c1.254-0.72,2.508-1.439,3.762-2.159c-3.874-1.705-7.414-3.8-10.772-6.377
			C338.537,276.11,336.044,280.451,338.565,282.385L338.565,282.385z"/>
	</g>
</g>
<g id="XMLID_21_">
	<g id="XMLID_63_">
		<path id="XMLID_67_" style="fill:#0F0737;" d="M350.724,271.34c1.78,2.87,3.561,5.739,5.341,8.609
			c1.071,1.726,4.104,1.591,4.569-0.597c1.667-7.845,4.485-15.153,8.553-22.071c1.635-2.78-2.685-5.299-4.317-2.524
			c-4.271,7.262-7.305,15.022-9.057,23.265c1.523-0.199,3.046-0.398,4.569-0.597c-1.78-2.87-3.561-5.739-5.341-8.609
			C353.348,266.087,349.021,268.595,350.724,271.34L350.724,271.34z"/>
	</g>
</g>
<g id="XMLID_22_">
	<g id="XMLID_70_">
		<path id="XMLID_90_" style="fill:#0F0737;" d="M371,235.5c-0.012,5.298-0.024,10.597-0.036,15.895c-0.007,3.221,4.93,3.217,5,0
			c0.21-9.595,0.25-19.118-1.242-28.624c-0.498-3.17-5.316-1.824-4.821,1.329c1.42,9.043,1.263,18.173,1.064,27.295
			c1.667,0,3.333,0,5,0c0.012-5.298,0.024-10.597,0.036-15.895C376.007,232.282,371.007,232.278,371,235.5L371,235.5z"/>
	</g>
</g>
<g id="XMLID_24_">
	<g id="XMLID_93_">
		<path id="XMLID_97_" style="fill:#0F0737;" d="M380,448c0,6.333,0,12.667,0,19c0,3.217,5,3.223,5,0c0-6.333,0-12.667,0-19
			C385,444.783,380,444.777,380,448L380,448z"/>
	</g>
</g>
<g id="XMLID_26_">
	<g id="XMLID_100_">
		<path id="XMLID_104_" style="fill:#0F0737;" d="M378,428c0,14.333,0,28.667,0,43c0,3.217,5,3.223,5,0c0-14.333,0-28.667,0-43
			C383,424.783,378,424.777,378,428L378,428z"/>
	</g>
</g>
<g id="XMLID_33_">
	<g id="XMLID_107_">
		<path id="XMLID_111_" style="fill:#0F0737;" d="M382.002,430.172c17.333-0.175,34.667-0.35,52-0.525c3.216-0.032,3.224-5.033,0-5
			c-17.333,0.175-34.667,0.35-52,0.525C378.786,425.204,378.778,430.204,382.002,430.172L382.002,430.172z"/>
	</g>
</g>
<g id="XMLID_40_">
	<g id="XMLID_114_">
		<path id="XMLID_118_" style="fill:#0F0737;" d="M433.127,427.506c-0.6,13.864-0.206,27.707,1.179,41.514
			c0.318,3.171,5.322,3.204,5,0c-1.385-13.807-1.778-27.65-1.179-41.514C438.267,424.289,433.266,424.295,433.127,427.506
			L433.127,427.506z"/>
	</g>
</g>
<g id="XMLID_47_">
	<g id="XMLID_121_">
		<path id="XMLID_125_" style="fill:#0F0737;" d="M382.026,474.351c17.801-1.342,35.654-1.907,53.487-2.656
			c3.206-0.135,3.223-5.135,0-5c-17.833,0.749-35.687,1.314-53.487,2.656C378.837,469.591,378.811,474.593,382.026,474.351
			L382.026,474.351z"/>
	</g>
</g>
<g id="XMLID_54_">
	<g id="XMLID_128_">
		<path id="XMLID_132_" style="fill:#0F0737;" d="M380,484c0,12.833,0,25.667,0,38.5c0,3.217,5,3.223,5,0c0-12.833,0-25.667,0-38.5
			C385,480.783,380,480.777,380,484L380,484z"/>
	</g>
</g>
<g id="XMLID_61_">
	<g id="XMLID_135_">
		<path id="XMLID_139_" style="fill:#0F0737;" d="M383,484.533c18.841-0.257,37.68,0.012,56.506,0.807c3.217,0.136,3.211-4.865,0-5
			c-18.826-0.794-37.665-1.063-56.506-0.807C379.786,479.577,379.777,484.577,383,484.533L383,484.533z"/>
	</g>
</g>
<g id="XMLID_68_">
	<g id="XMLID_142_">
		<path id="XMLID_146_" style="fill:#0F0737;" d="M437.76,485.026c-1.098,11.834-1.038,23.658,0.18,35.481
			c0.326,3.169,5.33,3.203,5,0c-1.218-11.823-1.278-23.646-0.18-35.481C443.057,481.823,438.055,481.843,437.76,485.026
			L437.76,485.026z"/>
	</g>
</g>
<g id="XMLID_91_">
	<g id="XMLID_149_">
		<path id="XMLID_153_" style="fill:#0F0737;" d="M368.569,481.695c1.48,14.063,1.994,28.17,1.541,42.303
			c-0.103,3.218,4.897,3.215,5,0c0.453-14.133-0.061-28.24-1.541-42.303C373.236,478.528,368.232,478.494,368.569,481.695
			L368.569,481.695z"/>
	</g>
</g>
<g id="XMLID_98_">
	<g id="XMLID_156_">
		<path id="XMLID_160_" style="fill:#0F0737;" d="M372.633,522.924c-19.074-1.472-38.191-1.697-57.295-0.676
			c-3.201,0.171-3.221,5.172,0,5c19.104-1.021,38.221-0.796,57.295,0.676C375.842,528.172,375.826,523.171,372.633,522.924
			L372.633,522.924z"/>
	</g>
</g>
<g id="XMLID_105_">
	<g id="XMLID_163_">
		<path id="XMLID_167_" style="fill:#0F0737;" d="M309.249,482.685c0.955,13.312,1.669,26.637,2.143,39.974
			c0.114,3.208,5.115,3.224,5,0c-0.474-13.337-1.189-26.662-2.143-39.974C314.02,479.494,309.018,479.469,309.249,482.685
			L309.249,482.685z"/>
	</g>
</g>
<g id="XMLID_112_">
	<g id="XMLID_170_">
		<path id="XMLID_174_" style="fill:#0F0737;" d="M312.001,484.436c19.225,0.258,38.451,0.19,57.674-0.203
			c3.213-0.066,3.224-5.066,0-5c-19.223,0.394-38.449,0.461-57.674,0.203C308.782,479.392,308.781,484.392,312.001,484.436
			L312.001,484.436z"/>
	</g>
</g>
<polyline id="XMLID_119_" style="fill:#0F0737;" points="380.585,427.312 440.259,425.568 441.176,470.279 378.509,471.818 
	379.025,429.279 "/>
<polyline id="XMLID_126_" style="fill:#0F0737;" points="381.996,480.496 441.67,478.752 442.587,523.464 379.92,525.002 
	380.435,482.463 "/>
<polyline id="XMLID_133_" style="fill:#0F0737;" points="312.409,481.291 372.083,479.547 373,524.258 310.333,525.797 
	310.848,483.257 "/>
</svg>
